<?xml version="1.0" encoding="utf-8"?>
<!-- Generator: Adobe Illustrator 16.0.0, SVG Export Plug-In . SVG Version: 6.00 Build 0)  -->
<!DOCTYPE svg PUBLIC "-//W3C//DTD SVG 1.1//EN" "http://www.w3.org/Graphics/SVG/1.1/DTD/svg11.dtd">
<svg version="1.1" id="Layer_1" xmlns="http://www.w3.org/2000/svg" xmlns:xlink="http://www.w3.org/1999/xlink" x="0px" y="0px"
	 width="41px" height="41px" viewBox="0 0 41 41" enable-background="new 0 0 41 41" xml:space="preserve">
<path fill="#121B0F" d="M20,2C9.507,2,1,10.507,1,21s8.507,19,19,19s19-8.507,19-19S30.493,2,20,2z M28.836,29.859
	c-0.739,0.739-1.938,0.74-2.676,0l-6.077-6.076l-6.077,6.076c-0.739,0.74-1.937,0.739-2.675,0c-0.739-0.738-0.738-1.935,0-2.674
	l6.077-6.077l-6.076-6.076c-0.738-0.739-0.738-1.937,0.001-2.676c0.738-0.738,1.936-0.737,2.674,0.001l6.076,6.076l6.076-6.076
	c0.738-0.738,1.936-0.739,2.674-0.001c0.739,0.739,0.739,1.938,0.001,2.676l-6.076,6.076l6.077,6.077
	C29.573,27.925,29.574,29.121,28.836,29.859z"/>
</svg>
