<?xml version="1.0" encoding="utf-8"?>
<!-- Generator: Adobe Illustrator 16.0.0, SVG Export Plug-In . SVG Version: 6.00 Build 0)  -->
<!DOCTYPE svg PUBLIC "-//W3C//DTD SVG 1.1//EN" "http://www.w3.org/Graphics/SVG/1.1/DTD/svg11.dtd">
<svg version="1.1" id="Layer_1" xmlns="http://www.w3.org/2000/svg" xmlns:xlink="http://www.w3.org/1999/xlink" x="0px" y="0px"
	 width="70px" height="56px" viewBox="0 0 70 56" enable-background="new 0 0 70 56" xml:space="preserve">
<path fill="#130C17" d="M1.465,55.607h6.104v-8.449l6.841,8.449h5.473V37.295h-6.104v8.084l-6.552-8.084H1.465V55.607z"/>
<path fill="#130C17" d="M34.672,55.255c1.228-0.497,2.293-1.178,3.197-2.04c0.903-0.864,1.613-1.875,2.131-3.035
	s0.776-2.402,0.776-3.729v-0.052c0-1.325-0.255-2.567-0.763-3.728c-0.51-1.16-1.215-2.168-2.118-3.021
	c-0.904-0.855-1.965-1.526-3.185-2.015s-2.539-0.733-3.96-0.733s-2.745,0.249-3.973,0.746c-1.229,0.497-2.294,1.178-3.197,2.041
	c-0.904,0.863-1.614,1.875-2.132,3.034c-0.518,1.16-0.776,2.403-0.776,3.728v0.053c0,1.326,0.254,2.568,0.764,3.729
	c0.508,1.159,1.214,2.167,2.118,3.021c0.903,0.854,1.964,1.525,3.184,2.014C27.958,55.756,29.277,56,30.698,56
	C32.12,56,33.443,55.752,34.672,55.255z M29.146,50.245c-0.474-0.227-0.877-0.532-1.21-0.916s-0.592-0.823-0.776-1.321
	c-0.184-0.496-0.276-1.016-0.276-1.557v-0.052c0-0.54,0.087-1.056,0.263-1.544c0.175-0.488,0.43-0.92,0.763-1.295
	s0.737-0.676,1.211-0.902c0.474-0.227,1-0.34,1.578-0.34c0.597,0,1.132,0.113,1.605,0.34s0.877,0.532,1.21,0.916
	s0.592,0.824,0.776,1.32c0.185,0.498,0.276,1.017,0.276,1.557v0.053c0,0.541-0.088,1.056-0.263,1.543
	c-0.176,0.489-0.431,0.921-0.763,1.295c-0.333,0.376-0.737,0.677-1.21,0.903s-1,0.34-1.579,0.34
	C30.154,50.585,29.62,50.472,29.146,50.245z"/>
<path fill="#130C17" d="M45.486,55.738h5.368l3.236-9.104l3.236,9.104h5.368l6.025-18.443H62.38l-2.605,8.791l-2.974-8.843h-5.314
	l-2.974,8.843l-2.605-8.791h-6.446L45.486,55.738z"/>
<path fill="#130C17" d="M24.312,32.824c2.132-0.863,3.982-2.044,5.552-3.543c1.569-1.5,2.803-3.256,3.702-5.27
	c0.898-2.014,1.348-4.172,1.348-6.474v-0.091c0-2.302-0.442-4.459-1.325-6.474c-0.884-2.014-2.11-3.763-3.679-5.248
	c-1.569-1.483-3.412-2.65-5.529-3.498c-2.118-0.848-4.41-1.272-6.877-1.272c-2.468,0-4.769,0.431-6.9,1.294
	C8.471,3.112,6.62,4.294,5.052,5.793c-1.569,1.499-2.804,3.256-3.702,5.27c-0.899,2.015-1.348,4.172-1.348,6.474v0.091
	c0,2.302,0.441,4.46,1.325,6.474c0.883,2.014,2.109,3.764,3.679,5.248c1.568,1.484,3.411,2.65,5.529,3.498
	c2.117,0.848,4.41,1.271,6.877,1.271C19.88,34.119,22.18,33.688,24.312,32.824z M14.716,24.125c-0.823-0.393-1.524-0.923-2.102-1.59
	c-0.579-0.666-1.028-1.431-1.348-2.294s-0.48-1.764-0.48-2.703v-0.091c0-0.938,0.152-1.832,0.457-2.681
	c0.304-0.848,0.746-1.597,1.325-2.249c0.579-0.651,1.279-1.173,2.102-1.567c0.823-0.393,1.737-0.59,2.742-0.59
	c1.035,0,1.965,0.197,2.788,0.59c0.823,0.394,1.523,0.924,2.102,1.59c0.578,0.667,1.028,1.431,1.348,2.294s0.48,1.765,0.48,2.703
	v0.091c0,0.939-0.153,1.833-0.457,2.681c-0.305,0.848-0.747,1.598-1.325,2.249c-0.579,0.652-1.279,1.174-2.102,1.567
	c-0.823,0.394-1.737,0.591-2.742,0.591C16.468,24.715,15.539,24.519,14.716,24.125z"/>
<path fill="#130C17" d="M37.016,33.438h10.602V18.764l11.881,14.674h9.505V1.636H58.402v14.039L47.023,1.636H37.016V33.438z"/>
</svg>
