<?xml version="1.0" encoding="utf-8"?>
<!-- Generator: Adobe Illustrator 16.0.0, SVG Export Plug-In . SVG Version: 6.00 Build 0)  -->
<!DOCTYPE svg PUBLIC "-//W3C//DTD SVG 1.1//EN" "http://www.w3.org/Graphics/SVG/1.1/DTD/svg11.dtd">
<svg version="1.1" id="Layer_1" xmlns="http://www.w3.org/2000/svg" xmlns:xlink="http://www.w3.org/1999/xlink" x="0px" y="0px"
	 width="58px" height="56px" viewBox="0 0 58 56" enable-background="new 0 0 58 56" xml:space="preserve">
<path fill="#0A1911" d="M4.141,55.174c-2.083-0.001-3.769-1.687-3.77-3.768l0,0V12.203c0.001-2.083,1.686-3.768,3.77-3.769l0,0
	h20.214l-5.387,5.384H5.756v35.971l34.387,0.001v-7.232l5.386-5.386l-0.001,14.234c-0.002,2.08-1.687,3.767-3.77,3.769l0,0
	L4.141,55.174L4.141,55.174z"/>
<path fill="#0A1911" d="M39.965,7.958V1.197l17.501,17.501L39.89,36.275v-7.031c0,0-10.31-0.713-17.701,3.863
	c-4.912,3.043-7.841,6.084-10.271,10.197c0,0,0.663-10.919,6.946-20.867C26.718,10.002,39.965,7.958,39.965,7.958z"/>
</svg>
