<?xml version="1.0" encoding="utf-8"?>
<!-- Generator: Adobe Illustrator 16.0.0, SVG Export Plug-In . SVG Version: 6.00 Build 0)  -->
<!DOCTYPE svg PUBLIC "-//W3C//DTD SVG 1.1//EN" "http://www.w3.org/Graphics/SVG/1.1/DTD/svg11.dtd">
<svg version="1.1" id="Layer_1" xmlns="http://www.w3.org/2000/svg" xmlns:xlink="http://www.w3.org/1999/xlink" x="0px" y="0px"
	 width="45px" height="45px" viewBox="0 0 45 45" enable-background="new 0 0 45 45" xml:space="preserve">
<path fill-rule="evenodd" clip-rule="evenodd" fill="#0F0B17" d="M6,1c2.762,0,5,2.239,5,5c0,2.762-2.238,5-5,5S1,8.762,1,6
	C1,3.239,3.238,1,6,1z"/>
<path fill-rule="evenodd" clip-rule="evenodd" fill="#0F0B17" d="M6,17c2.762,0,5,2.239,5,5c0,2.762-2.238,5-5,5s-5-2.238-5-5
	C1,19.239,3.238,17,6,17z"/>
<path fill-rule="evenodd" clip-rule="evenodd" fill="#0F0B17" d="M6,33c2.762,0,5,2.238,5,5s-2.238,5-5,5s-5-2.238-5-5
	S3.238,33,6,33z"/>
<path fill-rule="evenodd" clip-rule="evenodd" fill="#0F0B17" d="M17,4h26v4H17V4z"/>
<path fill-rule="evenodd" clip-rule="evenodd" fill="#0F0B17" d="M17,36h26v4H17V36z"/>
<path fill-rule="evenodd" clip-rule="evenodd" fill="#0F0B17" d="M17,20h26v4H17V20z"/>
</svg>
