<?xml version="1.0" encoding="utf-8"?>
<!-- Generator: Adobe Illustrator 16.2.1, SVG Export Plug-In . SVG Version: 6.00 Build 0)  -->
<!DOCTYPE svg PUBLIC "-//W3C//DTD SVG 1.1//EN" "http://www.w3.org/Graphics/SVG/1.1/DTD/svg11.dtd">
<svg version="1.1" id="Layer_1" xmlns="http://www.w3.org/2000/svg" xmlns:xlink="http://www.w3.org/1999/xlink" x="0px" y="0px"
	 width="64px" height="64px" viewBox="0 0 64 64" enable-background="new 0 0 64 64" xml:space="preserve">
<path d="M33.958,5C19.015,5,11.481,15.713,11.481,24.646c0,5.409,2.048,10.221,6.44,12.014c0.72,0.295,1.365,0.011,1.574-0.787
	c0.145-0.552,0.489-1.943,0.642-2.523c0.211-0.789,0.129-1.065-0.452-1.753c-1.267-1.494-2.076-3.428-2.076-6.167
	c0-7.948,5.946-15.062,15.483-15.062c8.446,0,13.086,5.16,13.086,12.052c0,9.068-4.013,16.721-9.971,16.721
	c-3.29,0-5.752-2.721-4.963-6.058c0.945-3.984,2.777-8.284,2.777-11.16c0-2.574-1.382-4.721-4.242-4.721
	c-3.364,0-6.065,3.479-6.065,8.14c0,2.969,1.003,4.976,1.003,4.976s-3.442,14.584-4.045,17.138
	c-1.202,5.086-0.181,11.321-0.094,11.951c0.051,0.373,0.53,0.462,0.748,0.18c0.31-0.404,4.316-5.35,5.678-10.292
	c0.385-1.398,2.212-8.644,2.212-8.644c1.093,2.084,4.287,3.92,7.682,3.92c10.11,0,16.97-9.217,16.97-21.554
	C53.868,13.688,45.967,5,33.958,5z"/>
</svg>
