<?xml version="1.0" encoding="utf-8"?>
<!-- Generator: Adobe Illustrator 16.0.0, SVG Export Plug-In . SVG Version: 6.00 Build 0)  -->
<!DOCTYPE svg PUBLIC "-//W3C//DTD SVG 1.1//EN" "http://www.w3.org/Graphics/SVG/1.1/DTD/svg11.dtd">
<svg version="1.1" id="Layer_1" xmlns="http://www.w3.org/2000/svg" xmlns:xlink="http://www.w3.org/1999/xlink" x="0px" y="0px"
	 width="44px" height="41px" viewBox="0 0 44 41" enable-background="new 0 0 44 41" xml:space="preserve">
<path fill="#0E1B0F" d="M40.781,34.418l-9.806-9.809c1.319-2.178,2.095-4.729,2.095-7.462c0-7.973-6.453-14.43-14.426-14.432
	C10.677,2.717,4.219,9.174,4.219,17.146c0,7.966,6.459,14.422,14.43,14.422c2.734,0,5.281-0.772,7.459-2.093l9.812,9.812
	L40.781,34.418z M9.723,17.146c0.009-4.93,3.996-8.917,8.924-8.926c4.925,0.012,8.915,3.996,8.923,8.926
	c-0.01,4.925-3.998,8.915-8.923,8.922C13.717,26.061,9.73,22.07,9.723,17.146z"/>
</svg>
