<?xml version="1.0" encoding="utf-8"?>
<!-- Generator: Adobe Illustrator 16.2.1, SVG Export Plug-In . SVG Version: 6.00 Build 0)  -->
<!DOCTYPE svg PUBLIC "-//W3C//DTD SVG 1.1//EN" "http://www.w3.org/Graphics/SVG/1.1/DTD/svg11.dtd">
<svg version="1.1" id="Layer_1" xmlns="http://www.w3.org/2000/svg" xmlns:xlink="http://www.w3.org/1999/xlink" x="0px" y="0px"
	 width="64px" height="64px" viewBox="0 0 64 64" enable-background="new 0 0 64 64" xml:space="preserve">
<g>
	<path d="M43.397,50.238c-3.327,0.833-5.27,0.693-7.628-0.831c-2.911-1.942-3.189-3.189-3.189-12.482V26.523h6.241
		c6.241,0,6.241,0,6.241-4.854c0-4.854,0-4.854-6.241-4.854H32.58v-6.241c0-5.687-0.277-6.241-3.467-6.241
		c-2.635,0-3.883,1.109-4.993,3.745c-1.803,4.715-6.657,10.124-9.154,10.124c-1.109,0-1.802,1.664-1.802,4.161
		c0,3.745,0.416,4.161,4.161,4.161h4.161v13.037c0,12.343,0.139,13.313,3.467,15.949c4.993,3.744,10.54,4.715,17.198,2.912
		c4.992-1.249,5.686-1.942,5.686-5.548C47.836,49.129,47.698,48.991,43.397,50.238z"/>
</g>
</svg>
