<?xml version="1.0" encoding="utf-8"?>
<!-- Generator: Adobe Illustrator 16.0.0, SVG Export Plug-In . SVG Version: 6.00 Build 0)  -->
<!DOCTYPE svg PUBLIC "-//W3C//DTD SVG 1.1//EN" "http://www.w3.org/Graphics/SVG/1.1/DTD/svg11.dtd">
<svg version="1.1" id="Layer_1" xmlns="http://www.w3.org/2000/svg" xmlns:xlink="http://www.w3.org/1999/xlink" x="0px" y="0px"
	 width="80px" height="70px" viewBox="0 0 80 70" enable-background="new 0 0 80 70" xml:space="preserve">
<path fill="#010101" d="M68.225,18.967c-2.026,0.901-4.202,1.512-6.485,1.785c2.332-1.405,4.122-3.636,4.959-6.289
	c-2.186,1.306-4.599,2.248-7.167,2.76c-2.062-2.206-4.992-3.586-8.243-3.586C45.057,13.637,40,18.728,40,25
	c0,0.893,0.098,1.76,0.295,2.586c-9.383-0.471-17.699-5-23.266-11.875c-0.969,1.678-1.527,3.628-1.527,5.71
	c0,3.942,1.995,7.421,5.024,9.455c-1.848-0.058-3.587-0.57-5.114-1.422c0,0.05,0,0.091,0,0.141c0,5.504,3.892,10.098,9.055,11.139
	c-0.943,0.257-1.945,0.397-2.972,0.397c-0.73,0-1.438-0.073-2.126-0.207c1.437,4.513,5.606,7.802,10.541,7.892
	c-3.867,3.051-8.728,4.869-14.022,4.869c-0.911,0-1.806-0.059-2.691-0.158c4.991,3.224,10.927,5.107,17.306,5.107
	c20.763,0,32.116-17.312,32.116-32.33c0-0.496-0.008-0.983-0.032-1.471c2.208-1.603,4.121-3.603,5.632-5.884L68.225,18.967z"/>
</svg>
