<?xml version="1.0" encoding="utf-8"?>
<!-- Generator: Adobe Illustrator 16.0.0, SVG Export Plug-In . SVG Version: 6.00 Build 0)  -->
<!DOCTYPE svg PUBLIC "-//W3C//DTD SVG 1.1//EN" "http://www.w3.org/Graphics/SVG/1.1/DTD/svg11.dtd">
<svg version="1.1" id="Layer_1" xmlns="http://www.w3.org/2000/svg" xmlns:xlink="http://www.w3.org/1999/xlink" x="0px" y="0px"
	 width="153px" height="67px" viewBox="0 0 153 67" enable-background="new 0 0 153 67" xml:space="preserve">
<path fill="#0D0C17" d="M62.663,39.104c-0.882-0.35-1.753-0.729-2.603-1.149c-1.612-0.8-3.154-1.75-4.543-2.895
	c-2.556-2.109-4.418-4.881-5.525-7.997c-1.134-3.19-1.537-6.658-1.34-10.03c0.211-3.61,1.184-7.164,2.97-10.315
	c1.4-2.47,3.259-4.67,5.433-6.495c-4.016,0-19.051,0.004-19.051,0.004S37.97,20.314,37.97,28.323v5.995
	c0,1.857-0.032,3.72-0.262,5.564c-0.406,3.277-1.469,7.096-4.561,8.824c-1.493,0.836-3.244,1.09-4.936,1.029
	c-1.7-0.059-3.419-0.494-4.786-1.545c-2.71-2.085-3.564-5.82-3.869-9.049c-0.169-1.787-0.168-3.582-0.168-5.374V27.76
	c0-4.027-0.003-27.532-0.003-27.532L-0.219,0.217c0,0,0.011,26.738-0.014,34.74c-0.012,3.891,0.052,7.814,0.854,11.638
	c0.707,3.374,1.965,6.665,3.911,9.524c1.882,2.768,4.413,5.028,7.323,6.67c3.13,1.768,6.632,2.789,10.174,3.311
	c3.566,0.523,7.224,0.59,10.813,0.283c3.423-0.294,6.837-0.99,10.017-2.312c3.018-1.256,5.764-3.082,7.978-5.496
	c2.106-2.299,3.702-5.037,4.762-7.965c0.085-0.236,0.168-0.476,0.247-0.715c2.333,2.297,4.894,4.432,7.823,5.927
	c2.881,1.471,6.263,2.349,9.498,1.776c1.602-0.281,3.139-0.965,4.321-2.098c1.12-1.071,1.864-2.498,2.137-4.021
	c0.256-1.442,0.114-2.968-0.525-4.294c-0.591-1.223-1.565-2.213-2.684-2.968c-1.624-1.099-3.535-1.774-5.386-2.378
	c-2.068-0.675-5.168-1.58-5.915-1.838C64.369,39.746,63.073,39.268,62.663,39.104 M120.382,49.617c-2.946,0-5.751-1.18-7.95-3.111
	c-2.361-2.075-3.979-4.903-4.848-7.904c-1.775-6.128-0.332-13.334,4.294-17.877c2.167-2.128,5.023-3.465,8.079-3.556
	c3.062-0.092,6.081,1.043,8.408,3.018c4.05,3.437,5.899,9.03,5.64,14.232c-0.262,5.23-2.736,10.56-7.289,13.383
	C124.82,48.977,122.611,49.617,120.382,49.617 M132.991,6.397c-4.165-3.977-9.772-6.14-15.5-6.35
	c-5.708-0.209-11.478,1.466-16.143,4.771c-4.079,2.89-7.248,6.959-9.43,11.431c-2.673-2.365-5.438-4.652-8.78-6.004
	c-3.113-1.26-6.878-1.84-10.038-0.419c-1.428,0.644-2.667,1.691-3.453,3.053c-0.799,1.388-1.125,3.04-0.948,4.628
	c0.171,1.542,0.839,2.919,1.95,4.001c1.164,1.134,2.648,1.878,4.139,2.486c1.716,0.7,3.5,1.206,5.27,1.742
	c1.687,0.512,3.369,1.043,5.017,1.668c3.192,1.212,6.323,2.803,8.799,5.198c4.967,4.807,6.564,12.104,5.735,18.797
	c-0.233,1.887-0.685,3.746-1.359,5.524c-0.158,0.418-0.329,0.833-0.513,1.241c-0.05,0.113-0.13,0.317-0.13,0.317
	s0.406,0.438,0.58,0.611c0.562,0.56,1.147,1.093,1.76,1.6c2.258,1.866,4.838,3.339,7.58,4.37c5.451,2.049,11.605,2.358,17.146,0.47
	c3.108-1.062,6.026-2.812,8.318-5.176c0,0.984-0.003,5.495-0.003,5.495l18.915,0.002l-0.005-64.927l-18.907-0.003V6.397z"/>
</svg>
